<svg width="422" height="508" viewBox="0 0 422 508" fill="none" xmlns="http://www.w3.org/2000/svg">
<line x1="-0.00227356" y1="118.48" x2="422.002" y2="118.48" stroke="#3498DB"/>
<line x1="-0.00227356" y1="148.48" x2="422.002" y2="148.48" stroke="#3498DB"/>
<line x1="-0.00227356" y1="178.48" x2="422.002" y2="178.48" stroke="#3498DB"/>
<line x1="-0.00227356" y1="28.4804" x2="422.002" y2="28.4804" stroke="#3498DB"/>
<line x1="-0.00227356" y1="58.4804" x2="422.002" y2="58.4804" stroke="#3498DB"/>
<line x1="-0.00227356" y1="88.4804" x2="422.002" y2="88.4804" stroke="#3498DB"/>
<line x1="-0.00227356" y1="208.48" x2="422.002" y2="208.48" stroke="#3498DB"/>
<line x1="-0.00227356" y1="238.48" x2="422.002" y2="238.48" stroke="#3498DB"/>
<line x1="-0.00227356" y1="268.48" x2="422.002" y2="268.48" stroke="#3498DB"/>
<line x1="-0.00227356" y1="298.48" x2="422.002" y2="298.48" stroke="#3498DB"/>
<line x1="-0.00227356" y1="328.48" x2="422.002" y2="328.48" stroke="#3498DB"/>
<line x1="-0.00227356" y1="358.48" x2="422.002" y2="358.48" stroke="#3498DB"/>
<line x1="-0.00227356" y1="388.48" x2="422.002" y2="388.48" stroke="#3498DB"/>
<line x1="-0.00227356" y1="418.48" x2="422.002" y2="418.48" stroke="#3498DB"/>
<line x1="-0.00227356" y1="448.48" x2="422.002" y2="448.48" stroke="#3498DB"/>
<line x1="-0.00227356" y1="478.48" x2="422.002" y2="478.48" stroke="#3498DB"/>
<line x1="-0.00227356" y1="508.48" x2="422.002" y2="508.48" stroke="#3498DB"/>
<line x1="30.5" y1="508" x2="30.5" stroke="#3498DB"/>
<line x1="60.5" y1="508" x2="60.5" stroke="#3498DB"/>
<line x1="90.5" y1="508" x2="90.5" stroke="#3498DB"/>
<line x1="120.5" y1="508" x2="120.5" stroke="#3498DB"/>
<line x1="150.5" y1="508" x2="150.5" stroke="#3498DB"/>
<line x1="180.5" y1="508" x2="180.5" stroke="#3498DB"/>
<line x1="210.5" y1="508" x2="210.5" stroke="#3498DB"/>
<line x1="240.5" y1="508" x2="240.5" stroke="#3498DB"/>
<line x1="270.5" y1="508" x2="270.5" stroke="#3498DB"/>
<line x1="300.5" y1="508" x2="300.5" stroke="#3498DB"/>
<line x1="330.5" y1="508" x2="330.5" stroke="#3498DB"/>
<line x1="360.5" y1="508" x2="360.5" stroke="#3498DB"/>
<line x1="390.5" y1="508" x2="390.5" stroke="#3498DB"/>
</svg>
